<svg width="180" height="70" viewBox="0 0 180 70" fill="none" xmlns="http://www.w3.org/2000/svg">
<g filter="url(#filter0_d_171_958)">
<rect x="11" y="9" width="160" height="50" rx="25" fill="white"/>
<rect x="12" y="10" width="158" height="48" rx="24" stroke="#0093D1" stroke-width="2"/>
</g>
<path d="M55.4964 32.326H53.1058C53.0376 31.9339 52.9119 31.5866 52.7287 31.2841C52.5455 30.9773 52.3175 30.7173 52.0447 30.5043C51.772 30.2912 51.4609 30.1314 51.1115 30.0249C50.7663 29.9141 50.3935 29.8587 49.9929 29.8587C49.2813 29.8587 48.6506 30.0376 48.1009 30.3956C47.5511 30.7493 47.1207 31.2692 46.8097 31.9553C46.4986 32.6371 46.343 33.4702 46.343 34.4545C46.343 35.456 46.4986 36.2997 46.8097 36.9858C47.125 37.6676 47.5554 38.1832 48.1009 38.5327C48.6506 38.8778 49.2791 39.0504 49.9865 39.0504C50.3786 39.0504 50.745 38.9993 51.0859 38.897C51.4311 38.7905 51.7401 38.6349 52.0128 38.4304C52.2898 38.2259 52.522 37.9744 52.7095 37.6761C52.9013 37.3778 53.0334 37.0369 53.1058 36.6534L55.4964 36.6662C55.407 37.2884 55.2131 37.8722 54.9148 38.4176C54.6207 38.9631 54.2351 39.4446 53.7578 39.8622C53.2805 40.2756 52.7223 40.5994 52.0831 40.8338C51.4439 41.0639 50.7344 41.179 49.9545 41.179C48.804 41.179 47.777 40.9126 46.8736 40.38C45.9702 39.8473 45.2585 39.0781 44.7386 38.0724C44.2188 37.0668 43.9588 35.8608 43.9588 34.4545C43.9588 33.044 44.2209 31.8381 44.745 30.8366C45.2692 29.831 45.983 29.0618 46.8864 28.5291C47.7898 27.9964 48.8125 27.7301 49.9545 27.7301C50.6832 27.7301 51.3608 27.8324 51.9872 28.0369C52.6136 28.2415 53.1719 28.5419 53.6619 28.9382C54.152 29.3303 54.5547 29.8118 54.87 30.3828C55.1896 30.9496 55.3984 31.5973 55.4964 32.326ZM61.4885 41.1918C60.5297 41.1918 59.6988 40.9808 58.9956 40.5589C58.2925 40.1371 57.7471 39.5469 57.3593 38.7884C56.9758 38.0298 56.784 37.1435 56.784 36.1293C56.784 35.1151 56.9758 34.2266 57.3593 33.4638C57.7471 32.701 58.2925 32.1087 58.9956 31.6868C59.6988 31.2649 60.5297 31.054 61.4885 31.054C62.4474 31.054 63.2783 31.2649 63.9814 31.6868C64.6846 32.1087 65.2279 32.701 65.6114 33.4638C65.9992 34.2266 66.1931 35.1151 66.1931 36.1293C66.1931 37.1435 65.9992 38.0298 65.6114 38.7884C65.2279 39.5469 64.6846 40.1371 63.9814 40.5589C63.2783 40.9808 62.4474 41.1918 61.4885 41.1918ZM61.5013 39.3381C62.0212 39.3381 62.4559 39.1953 62.8053 38.9098C63.1547 38.62 63.4147 38.2322 63.5851 37.7464C63.7599 37.2607 63.8472 36.7195 63.8472 36.1229C63.8472 35.522 63.7599 34.9787 63.5851 34.4929C63.4147 34.0028 63.1547 33.6129 62.8053 33.3232C62.4559 33.0334 62.0212 32.8885 61.5013 32.8885C60.9687 32.8885 60.5255 33.0334 60.1718 33.3232C59.8224 33.6129 59.5603 34.0028 59.3856 34.4929C59.2151 34.9787 59.1299 35.522 59.1299 36.1229C59.1299 36.7195 59.2151 37.2607 59.3856 37.7464C59.5603 38.2322 59.8224 38.62 60.1718 38.9098C60.5255 39.1953 60.9687 39.3381 61.5013 39.3381ZM70.111 35.2472V41H67.797V31.1818H70.0087V32.8501H70.1238C70.3496 32.3004 70.7097 31.8636 71.204 31.5398C71.7026 31.2159 72.3184 31.054 73.0513 31.054C73.7289 31.054 74.3191 31.1989 74.8219 31.4886C75.329 31.7784 75.7211 32.1982 75.998 32.7479C76.2793 33.2976 76.4178 33.9645 76.4135 34.7486V41H74.0996V35.1065C74.0996 34.4503 73.9291 33.9368 73.5882 33.5661C73.2516 33.1953 72.785 33.0099 72.1884 33.0099C71.7836 33.0099 71.4235 33.0994 71.1081 33.2784C70.797 33.4531 70.552 33.7067 70.373 34.0391C70.1983 34.3714 70.111 34.7741 70.111 35.2472ZM83.3085 31.1818V32.9716H77.6643V31.1818H83.3085ZM79.0578 28.8295H81.3717V38.0469C81.3717 38.358 81.4186 38.5966 81.5123 38.7628C81.6103 38.9247 81.7382 39.0355 81.8959 39.0952C82.0535 39.1548 82.2282 39.1847 82.42 39.1847C82.5649 39.1847 82.697 39.174 82.8163 39.1527C82.9399 39.1314 83.0336 39.1122 83.0976 39.0952L83.4875 40.9041C83.3639 40.9467 83.187 40.9936 82.9569 41.0447C82.7311 41.0959 82.4541 41.1257 82.126 41.1342C81.5464 41.1513 81.0244 41.0639 80.5599 40.8722C80.0954 40.6761 79.7268 40.3736 79.4541 39.9645C79.1856 39.5554 79.0535 39.044 79.0578 38.4304V28.8295ZM87.709 41.1982C87.0868 41.1982 86.5264 41.0874 86.0279 40.8658C85.5335 40.6399 85.1415 40.3075 84.8517 39.8686C84.5662 39.4297 84.4235 38.8885 84.4235 38.245C84.4235 37.6911 84.5257 37.233 84.7303 36.8707C84.9348 36.5085 85.2139 36.2188 85.5676 36.0014C85.9213 35.7841 86.3198 35.62 86.7629 35.5092C87.2104 35.3942 87.6728 35.3111 88.15 35.2599C88.7253 35.2003 89.1919 35.147 89.5499 35.1001C89.9078 35.049 90.1678 34.9723 90.3297 34.87C90.4959 34.7635 90.579 34.5994 90.579 34.3778V34.3395C90.579 33.858 90.4362 33.4851 90.1507 33.2209C89.8652 32.9567 89.454 32.8246 88.9171 32.8246C88.3503 32.8246 87.9007 32.9482 87.5683 33.1953C87.2402 33.4425 87.0186 33.7344 86.9036 34.071L84.7431 33.7642C84.9135 33.1676 85.1948 32.669 85.5868 32.2685C85.9789 31.8636 86.4583 31.5611 87.025 31.3608C87.5918 31.1562 88.2182 31.054 88.9043 31.054C89.3773 31.054 89.8482 31.1094 90.3169 31.2202C90.7857 31.331 91.2139 31.5142 91.6017 31.7699C91.9895 32.0213 92.3006 32.3643 92.535 32.799C92.7736 33.2337 92.8929 33.777 92.8929 34.429V41H90.6685V39.6513H90.5918C90.4512 39.924 90.253 40.1797 89.9973 40.4183C89.7459 40.6527 89.4284 40.8423 89.0449 40.9872C88.6656 41.1278 88.2203 41.1982 87.709 41.1982ZM88.3098 39.4979C88.7743 39.4979 89.177 39.4062 89.5179 39.223C89.8588 39.0355 90.1209 38.7884 90.3041 38.4815C90.4916 38.1747 90.5854 37.8402 90.5854 37.478V36.321C90.5129 36.3807 90.3894 36.4361 90.2147 36.4872C90.0442 36.5384 89.8524 36.5831 89.6394 36.6214C89.4263 36.6598 89.2154 36.6939 89.0066 36.7237C88.7978 36.7536 88.6166 36.7791 88.4632 36.8004C88.1181 36.8473 87.8091 36.924 87.5364 37.0305C87.2637 37.1371 87.0485 37.2862 86.8908 37.478C86.7331 37.6655 86.6543 37.9084 86.6543 38.2067C86.6543 38.6328 86.8098 38.9545 87.1209 39.1719C87.432 39.3892 87.8283 39.4979 88.3098 39.4979ZM99.1423 41.1918C98.1622 41.1918 97.3206 40.9766 96.6174 40.5462C95.9186 40.1158 95.3795 39.5213 95.0002 38.7628C94.6252 38 94.4377 37.1222 94.4377 36.1293C94.4377 35.1321 94.6295 34.2521 95.013 33.4893C95.3966 32.7223 95.9377 32.1257 96.6366 31.6996C97.3397 31.2692 98.1707 31.054 99.1295 31.054C99.9264 31.054 100.632 31.201 101.245 31.495C101.863 31.7848 102.355 32.196 102.722 32.7287C103.088 33.2571 103.297 33.875 103.348 34.5824H101.137C101.047 34.1094 100.834 33.7152 100.497 33.3999C100.165 33.0803 99.7197 32.9205 99.1615 32.9205C98.6885 32.9205 98.273 33.0483 97.915 33.304C97.5571 33.5554 97.2779 33.9176 97.0777 34.3906C96.8816 34.8636 96.7836 35.4304 96.7836 36.0909C96.7836 36.7599 96.8816 37.3352 97.0777 37.8168C97.2737 38.294 97.5485 38.6626 97.9022 38.9226C98.2602 39.1783 98.6799 39.3061 99.1615 39.3061C99.5024 39.3061 99.8071 39.2422 100.076 39.1143C100.348 38.9822 100.576 38.7926 100.759 38.5455C100.943 38.2983 101.068 37.9979 101.137 37.6442H103.348C103.293 38.3388 103.088 38.9545 102.735 39.4915C102.381 40.0241 101.899 40.4418 101.29 40.7443C100.681 41.0426 99.9647 41.1918 99.1423 41.1918ZM109.791 31.1818V32.9716H104.147V31.1818H109.791ZM105.54 28.8295H107.854V38.0469C107.854 38.358 107.901 38.5966 107.995 38.7628C108.093 38.9247 108.221 39.0355 108.378 39.0952C108.536 39.1548 108.711 39.1847 108.903 39.1847C109.047 39.1847 109.179 39.174 109.299 39.1527C109.422 39.1314 109.516 39.1122 109.58 39.0952L109.97 40.9041C109.846 40.9467 109.67 40.9936 109.439 41.0447C109.214 41.0959 108.937 41.1257 108.608 41.1342C108.029 41.1513 107.507 41.0639 107.042 40.8722C106.578 40.6761 106.209 40.3736 105.937 39.9645C105.668 39.5554 105.536 39.044 105.54 38.4304V28.8295ZM123.825 27.9091H126.197V36.4616C126.197 37.3991 125.975 38.2237 125.532 38.9354C125.093 39.647 124.475 40.2031 123.678 40.6037C122.882 41 121.95 41.1982 120.885 41.1982C119.815 41.1982 118.882 41 118.085 40.6037C117.289 40.2031 116.671 39.647 116.232 38.9354C115.793 38.2237 115.573 37.3991 115.573 36.4616V27.9091H117.945V36.2635C117.945 36.8089 118.064 37.2947 118.303 37.7209C118.546 38.147 118.887 38.4815 119.325 38.7244C119.764 38.9631 120.284 39.0824 120.885 39.0824C121.486 39.0824 122.006 38.9631 122.445 38.7244C122.888 38.4815 123.229 38.147 123.467 37.7209C123.706 37.2947 123.825 36.8089 123.825 36.2635V27.9091ZM136.072 33.777L133.963 34.0071C133.903 33.794 133.799 33.5938 133.65 33.4062C133.505 33.2188 133.309 33.0675 133.061 32.9524C132.814 32.8374 132.512 32.7798 132.154 32.7798C131.672 32.7798 131.267 32.8842 130.939 33.093C130.615 33.3018 130.456 33.5724 130.46 33.9048C130.456 34.1903 130.56 34.4226 130.773 34.6016C130.99 34.7805 131.348 34.9276 131.847 35.0426L133.522 35.4006C134.451 35.6009 135.141 35.9183 135.593 36.353C136.049 36.7876 136.279 37.3565 136.283 38.0597C136.279 38.6776 136.098 39.223 135.74 39.696C135.386 40.1648 134.894 40.5312 134.263 40.7955C133.633 41.0597 132.908 41.1918 132.09 41.1918C130.888 41.1918 129.921 40.9403 129.188 40.4375C128.455 39.9304 128.018 39.2251 127.878 38.3217L130.134 38.1044C130.236 38.5476 130.454 38.8821 130.786 39.108C131.118 39.3338 131.551 39.4467 132.084 39.4467C132.633 39.4467 133.074 39.3338 133.407 39.108C133.743 38.8821 133.912 38.603 133.912 38.2706C133.912 37.9893 133.803 37.7571 133.586 37.5739C133.373 37.3906 133.04 37.25 132.588 37.152L130.914 36.8004C129.972 36.6044 129.275 36.2741 128.824 35.8097C128.372 35.3409 128.148 34.7486 128.152 34.0327C128.148 33.4276 128.312 32.9034 128.645 32.4602C128.981 32.0128 129.448 31.6676 130.044 31.4247C130.645 31.1776 131.338 31.054 132.122 31.054C133.272 31.054 134.178 31.299 134.838 31.7891C135.503 32.2791 135.914 32.9418 136.072 33.777Z" fill="#2A97D4"/>
<defs>
<filter id="filter0_d_171_958" x="0" y="0" width="180" height="70" filterUnits="userSpaceOnUse" color-interpolation-filters="sRGB">
<feFlood flood-opacity="0" result="BackgroundImageFix"/>
<feColorMatrix in="SourceAlpha" type="matrix" values="0 0 0 0 0 0 0 0 0 0 0 0 0 0 0 0 0 0 127 0" result="hardAlpha"/>
<feOffset dx="-1" dy="1"/>
<feGaussianBlur stdDeviation="5"/>
<feComposite in2="hardAlpha" operator="out"/>
<feColorMatrix type="matrix" values="0 0 0 0 0 0 0 0 0 0 0 0 0 0 0 0 0 0 0.25 0"/>
<feBlend mode="normal" in2="BackgroundImageFix" result="effect1_dropShadow_171_958"/>
<feBlend mode="normal" in="SourceGraphic" in2="effect1_dropShadow_171_958" result="shape"/>
</filter>
</defs>
</svg>
