<svg width="145" height="57" viewBox="0 0 145 57" fill="none" xmlns="http://www.w3.org/2000/svg">
<g filter="url(#filter0_d_171_962)">
<rect x="9" y="8" width="128" height="40" rx="20" fill="white"/>
<rect x="9.8" y="8.8" width="126.4" height="38.4" rx="19.2" stroke="#0093D1" stroke-width="1.6"/>
</g>
<path d="M45.0137 25.9716H43.0215C42.9647 25.6449 42.8599 25.3555 42.7073 25.1034C42.5546 24.8477 42.3646 24.6311 42.1373 24.4535C41.91 24.2759 41.6508 24.1428 41.3596 24.054C41.072 23.9617 40.7612 23.9155 40.4274 23.9155C39.8344 23.9155 39.3088 24.0647 38.8507 24.3629C38.3926 24.6577 38.034 25.0909 37.7747 25.6627C37.5155 26.2308 37.3859 26.9251 37.3859 27.7454C37.3859 28.5799 37.5155 29.283 37.7747 29.8548C38.0375 30.423 38.3962 30.8526 38.8507 31.1438C39.3088 31.4315 39.8326 31.5753 40.4221 31.5753C40.7488 31.5753 41.0542 31.5327 41.3383 31.4475C41.6259 31.3587 41.8834 31.2291 42.1107 31.0586C42.3415 30.8882 42.535 30.6786 42.6913 30.4301C42.8511 30.1815 42.9612 29.8974 43.0215 29.5778L45.0137 29.5884C44.9391 30.1069 44.7776 30.5934 44.529 31.048C44.284 31.5025 43.9626 31.9038 43.5648 32.2518C43.1671 32.5963 42.7019 32.8661 42.1693 33.0615C41.6366 33.2532 41.0453 33.3491 40.3955 33.3491C39.4367 33.3491 38.5808 33.1272 37.828 32.6833C37.0751 32.2394 36.4821 31.5984 36.0489 30.7603C35.6156 29.9223 35.399 28.9173 35.399 27.7454C35.399 26.57 35.6174 25.565 36.0542 24.7305C36.491 23.8924 37.0858 23.2514 37.8386 22.8075C38.5915 22.3637 39.4438 22.1417 40.3955 22.1417C41.0027 22.1417 41.5673 22.2269 42.0894 22.3974C42.6114 22.5678 43.0766 22.8182 43.4849 23.1485C43.8933 23.4752 44.2289 23.8764 44.4917 24.3523C44.758 24.8246 44.932 25.3644 45.0137 25.9716ZM50.0071 33.3598C49.2081 33.3598 48.5156 33.184 47.9297 32.8324C47.3438 32.4808 46.8892 31.989 46.5661 31.3569C46.2465 30.7248 46.0867 29.9862 46.0867 29.141C46.0867 28.2958 46.2465 27.5554 46.5661 26.9198C46.8892 26.2841 47.3438 25.7905 47.9297 25.4389C48.5156 25.0874 49.2081 24.9116 50.0071 24.9116C50.8061 24.9116 51.4986 25.0874 52.0845 25.4389C52.6705 25.7905 53.1232 26.2841 53.4429 26.9198C53.766 27.5554 53.9276 28.2958 53.9276 29.141C53.9276 29.9862 53.766 30.7248 53.4429 31.3569C53.1232 31.989 52.6705 32.4808 52.0845 32.8324C51.4986 33.184 50.8061 33.3598 50.0071 33.3598ZM50.0178 31.815C50.451 31.815 50.8132 31.696 51.1044 31.4581C51.3956 31.2166 51.6122 30.8935 51.7543 30.4887C51.8999 30.0838 51.9727 29.6328 51.9727 29.1357C51.9727 28.635 51.8999 28.1822 51.7543 27.7774C51.6122 27.369 51.3956 27.0441 51.1044 26.8026C50.8132 26.5611 50.451 26.4404 50.0178 26.4404C49.5739 26.4404 49.2046 26.5611 48.9098 26.8026C48.6186 27.0441 48.4002 27.369 48.2546 27.7774C48.1126 28.1822 48.0416 28.635 48.0416 29.1357C48.0416 29.6328 48.1126 30.0838 48.2546 30.4887C48.4002 30.8935 48.6186 31.2166 48.9098 31.4581C49.2046 31.696 49.5739 31.815 50.0178 31.815ZM57.1925 28.4059V33.2H55.2642V25.0181H57.1073V26.4084H57.2031C57.3913 25.9503 57.6914 25.5863 58.1033 25.3164C58.5188 25.0465 59.032 24.9116 59.6428 24.9116C60.2074 24.9116 60.6992 25.0323 61.1183 25.2738C61.5408 25.5153 61.8675 25.8651 62.0984 26.3232C62.3327 26.7813 62.4482 27.337 62.4446 27.9904V33.2H60.5163V28.2887C60.5163 27.7419 60.3743 27.3139 60.0902 27.005C59.8097 26.696 59.4208 26.5416 58.9237 26.5416C58.5863 26.5416 58.2862 26.6161 58.0234 26.7653C57.7642 26.9109 57.56 27.1222 57.4109 27.3992C57.2653 27.6762 57.1925 28.0117 57.1925 28.4059ZM68.1904 25.0181V26.5096H63.4869V25.0181H68.1904ZM64.6482 23.0579H66.5764V30.739C66.5764 30.9982 66.6155 31.1971 66.6936 31.3356C66.7753 31.4705 66.8818 31.5629 67.0132 31.6126C67.1446 31.6623 67.2902 31.6872 67.45 31.6872C67.5707 31.6872 67.6808 31.6783 67.7803 31.6605C67.8832 31.6428 67.9614 31.6268 68.0146 31.6126L68.3396 33.1201C68.2366 33.1556 68.0892 33.1946 67.8974 33.2372C67.7092 33.2799 67.4784 33.3047 67.205 33.3118C66.722 33.326 66.287 33.2532 65.8999 33.0934C65.5129 32.9301 65.2057 32.6779 64.9784 32.337C64.7547 31.9961 64.6446 31.57 64.6482 31.0586V23.0579ZM71.8575 33.3651C71.339 33.3651 70.872 33.2727 70.4566 33.0881C70.0446 32.8999 69.7179 32.6229 69.4764 32.2571C69.2385 31.8914 69.1196 31.4404 69.1196 30.9041C69.1196 30.4425 69.2048 30.0607 69.3752 29.7589C69.5457 29.4571 69.7783 29.2156 70.073 29.0345C70.3678 28.8534 70.6998 28.7166 71.0691 28.6243C71.442 28.5284 71.8273 28.4592 72.225 28.4166C72.7044 28.3669 73.0933 28.3225 73.3916 28.2834C73.6899 28.2408 73.9065 28.1769 74.0414 28.0916C74.1799 28.0029 74.2492 27.8661 74.2492 27.6815V27.6495C74.2492 27.2482 74.1302 26.9375 73.8923 26.7174C73.6544 26.4972 73.3117 26.3871 72.8642 26.3871C72.3919 26.3871 72.0173 26.4901 71.7403 26.696C71.4669 26.902 71.2822 27.1453 71.1863 27.4258L69.3859 27.1701C69.5279 26.673 69.7623 26.2575 70.089 25.9237C70.4157 25.5863 70.8152 25.3342 71.2875 25.1673C71.7598 24.9968 72.2818 24.9116 72.8536 24.9116C73.2478 24.9116 73.6402 24.9578 74.0308 25.0501C74.4214 25.1424 74.7783 25.2951 75.1014 25.5082C75.4246 25.7177 75.6838 26.0036 75.8791 26.3658C76.078 26.728 76.1774 27.1808 76.1774 27.7241V33.2H74.3237V32.076H74.2598C74.1426 32.3033 73.9775 32.5164 73.7644 32.7152C73.5549 32.9105 73.2904 33.0686 72.9708 33.1893C72.6547 33.3065 72.2836 33.3651 71.8575 33.3651ZM72.3582 31.9482C72.7453 31.9482 73.0808 31.8718 73.3649 31.7191C73.649 31.5629 73.8674 31.3569 74.0201 31.1012C74.1764 30.8455 74.2545 30.5668 74.2545 30.2649V29.3008C74.1941 29.3505 74.0911 29.3967 73.9455 29.4393C73.8035 29.4819 73.6437 29.5192 73.4661 29.5512C73.2886 29.5831 73.1128 29.6115 72.9388 29.6364C72.7648 29.6612 72.6139 29.6826 72.486 29.7003C72.1984 29.7394 71.9409 29.8033 71.7137 29.8921C71.4864 29.9808 71.3071 30.1051 71.1757 30.2649C71.0443 30.4212 70.9786 30.6236 70.9786 30.8722C70.9786 31.2273 71.1082 31.4954 71.3674 31.6765C71.6267 31.8576 71.9569 31.9482 72.3582 31.9482ZM81.3853 33.3598C80.5685 33.3598 79.8671 33.1804 79.2812 32.8218C78.6988 32.4631 78.2496 31.9677 77.9335 31.3356C77.621 30.7 77.4648 29.9684 77.4648 29.141C77.4648 28.31 77.6246 27.5767 77.9442 26.9411C78.2638 26.3019 78.7148 25.8047 79.2972 25.4496C79.8831 25.0909 80.5756 24.9116 81.3746 24.9116C82.0387 24.9116 82.6264 25.0341 83.1377 25.2791C83.6527 25.5206 84.0628 25.8633 84.3682 26.3072C84.6736 26.7475 84.8476 27.2625 84.8902 27.8519H83.0472C82.9726 27.4578 82.7951 27.1293 82.5145 26.8665C82.2375 26.6002 81.8664 26.467 81.4012 26.467C81.0071 26.467 80.6608 26.5735 80.3625 26.7866C80.0642 26.9961 79.8316 27.298 79.6647 27.6921C79.5014 28.0863 79.4197 28.5586 79.4197 29.109C79.4197 29.6666 79.5014 30.146 79.6647 30.5473C79.8281 30.945 80.0571 31.2522 80.3519 31.4688C80.6502 31.6818 81 31.7884 81.4012 31.7884C81.6853 31.7884 81.9392 31.7351 82.163 31.6286C82.3902 31.5185 82.5802 31.3605 82.7329 31.1545C82.8856 30.9485 82.9904 30.6982 83.0472 30.4034H84.8902C84.8441 30.9823 84.6736 31.4954 84.3789 31.9428C84.0841 32.3867 83.6828 32.7348 83.175 32.9869C82.6672 33.2355 82.0706 33.3598 81.3853 33.3598ZM90.2592 25.0181V26.5096H85.5557V25.0181H90.2592ZM86.7169 23.0579H88.6452V30.739C88.6452 30.9982 88.6842 31.1971 88.7624 31.3356C88.844 31.4705 88.9506 31.5629 89.082 31.6126C89.2134 31.6623 89.359 31.6872 89.5188 31.6872C89.6395 31.6872 89.7496 31.6783 89.849 31.6605C89.952 31.6428 90.0301 31.6268 90.0834 31.6126L90.4083 33.1201C90.3053 33.1556 90.158 33.1946 89.9662 33.2372C89.778 33.2799 89.5472 33.3047 89.2737 33.3118C88.7908 33.326 88.3558 33.2532 87.9687 33.0934C87.5816 32.9301 87.2744 32.6779 87.0472 32.337C86.8234 31.9961 86.7134 31.57 86.7169 31.0586V23.0579ZM101.955 22.2909H103.931V29.418C103.931 30.1992 103.746 30.8864 103.377 31.4794C103.011 32.0725 102.496 32.5359 101.832 32.8697C101.168 33.2 100.392 33.3651 99.5042 33.3651C98.6129 33.3651 97.8352 33.2 97.1712 32.8697C96.5071 32.5359 95.9922 32.0725 95.6264 31.4794C95.2606 30.8864 95.0778 30.1992 95.0778 29.418V22.2909H97.054V29.2529C97.054 29.7074 97.1534 30.1122 97.3523 30.4674C97.5547 30.8225 97.8388 31.1012 98.2045 31.3036C98.5703 31.5025 99.0035 31.6019 99.5042 31.6019C100.005 31.6019 100.438 31.5025 100.804 31.3036C101.173 31.1012 101.457 30.8225 101.656 30.4674C101.855 30.1122 101.955 29.7074 101.955 29.2529V22.2909ZM112.16 27.1808L110.402 27.3725C110.353 27.195 110.266 27.0281 110.141 26.8718C110.021 26.7156 109.857 26.5895 109.651 26.4936C109.445 26.3977 109.193 26.3498 108.895 26.3498C108.494 26.3498 108.156 26.4368 107.883 26.6108C107.613 26.7848 107.48 27.0103 107.483 27.2873C107.48 27.5252 107.567 27.7188 107.744 27.8679C107.925 28.0171 108.224 28.1396 108.639 28.2355L110.035 28.5338C110.809 28.7007 111.384 28.9652 111.761 29.3274C112.141 29.6897 112.332 30.1637 112.336 30.7497C112.332 31.2646 112.181 31.7191 111.883 32.1133C111.588 32.5039 111.178 32.8093 110.653 33.0295C110.127 33.2497 109.523 33.3598 108.842 33.3598C107.84 33.3598 107.034 33.1502 106.423 32.7312C105.812 32.3086 105.448 31.7209 105.331 30.9681L107.212 30.787C107.297 31.1563 107.478 31.435 107.755 31.6232C108.032 31.8115 108.392 31.9056 108.836 31.9056C109.294 31.9056 109.662 31.8115 109.939 31.6232C110.219 31.435 110.36 31.2024 110.36 30.9254C110.36 30.6911 110.269 30.4975 110.088 30.3448C109.91 30.1921 109.633 30.075 109.257 29.9933L107.861 29.7003C107.077 29.537 106.496 29.2617 106.12 28.8747C105.743 28.484 105.557 27.9904 105.56 27.3938C105.557 26.8896 105.694 26.4528 105.97 26.0835C106.251 25.7106 106.64 25.423 107.137 25.2205C107.638 25.0146 108.215 24.9116 108.868 24.9116C109.827 24.9116 110.582 25.1158 111.132 25.5242C111.686 25.9326 112.029 26.4848 112.16 27.1808Z" fill="#2A97D4"/>
<defs>
<filter id="filter0_d_171_962" x="0.2" y="0.8" width="144" height="56" filterUnits="userSpaceOnUse" color-interpolation-filters="sRGB">
<feFlood flood-opacity="0" result="BackgroundImageFix"/>
<feColorMatrix in="SourceAlpha" type="matrix" values="0 0 0 0 0 0 0 0 0 0 0 0 0 0 0 0 0 0 127 0" result="hardAlpha"/>
<feOffset dx="-0.8" dy="0.8"/>
<feGaussianBlur stdDeviation="4"/>
<feComposite in2="hardAlpha" operator="out"/>
<feColorMatrix type="matrix" values="0 0 0 0 0 0 0 0 0 0 0 0 0 0 0 0 0 0 0.25 0"/>
<feBlend mode="normal" in2="BackgroundImageFix" result="effect1_dropShadow_171_962"/>
<feBlend mode="normal" in="SourceGraphic" in2="effect1_dropShadow_171_962" result="shape"/>
</filter>
</defs>
</svg>
